<?xml version="1.0" encoding="UTF-8" standalone="no"?><!DOCTYPE svg PUBLIC "-//W3C//DTD SVG 1.1//EN" "http://www.w3.org/Graphics/SVG/1.1/DTD/svg11.dtd"><svg width="100%" height="100%" viewBox="0 0 205 171" version="1.1" xmlns="http://www.w3.org/2000/svg" xmlns:xlink="http://www.w3.org/1999/xlink" xml:space="preserve" xmlns:serif="http://www.serif.com/" style="fill-rule:evenodd;clip-rule:evenodd;stroke-linejoin:round;stroke-miterlimit:1.41421;"><path d="M183,127.275c-11.849,0 -21.6,9.751 -21.6,21.6c0,11.849 9.751,21.6 21.6,21.6c11.849,0 21.6,-9.751 21.6,-21.6c0,-11.849 -9.751,-21.6 -21.6,-21.6Zm-136.275,-127.275c19.2,0 32.625,0.525 40.275,1.8c7.65,1.275 14.175,3.45 19.65,6.45c6.004,3.219 10.992,8.051 14.4,13.95c3.369,6.237 5.074,13.238 4.95,20.325c0,9.675 -2.4,17.25 -7.35,23.025c-4.95,5.775 -12.75,10.05 -23.55,12.975c12.1,0.9 21.55,5.15 28.35,12.75c6.825,7.575 10.2,17.7 10.2,30.375c0,9.15 -1.95,17.175 -5.775,24.075c-3.758,6.862 -9.478,12.451 -16.425,16.05c-5.775,3.075 -12.9,5.325 -21.45,6.675c-8.55,1.3 -22.5,1.95 -41.85,1.95l-48.15,0l0,-170.4l46.725,0Zm12.75,139.575c10.95,0 18.75,-1.35 23.325,-4.125l-0.075,0.075c4.65,-2.775 6.9,-6.6 6.9,-13.8c0,-7.2 -2.175,-12.15 -6.3,-15c-4.125,-2.85 -11.925,-4.275 -23.175,-4.275l-16.95,0l0,37.125l16.275,0Zm142.275,-139.575l0,113.64l-37.5,0l0,-113.64l37.5,0Zm-149.325,71.925c11.475,0 19.35,-1.2 23.55,-3.75c4.2,-2.55 6.375,-6.675 6.375,-13.05c0,-6.375 -1.95,-10.875 -5.925,-13.5c-3.95,-2.6 -11.7,-3.9 -23.25,-3.9l-9.975,0l0,34.2l9.225,0Z" style="fill:#fff;fill-rule:nonzero;"/></svg>