<?xml version="1.0" encoding="UTF-8" standalone="no"?><!DOCTYPE svg PUBLIC "-//W3C//DTD SVG 1.1//EN" "http://www.w3.org/Graphics/SVG/1.1/DTD/svg11.dtd"><svg width="100%" height="100%" viewBox="0 0 188 153" version="1.1" xmlns="http://www.w3.org/2000/svg" xmlns:xlink="http://www.w3.org/1999/xlink" xml:space="preserve" xmlns:serif="http://www.serif.com/" style="fill-rule:evenodd;clip-rule:evenodd;stroke-linejoin:round;stroke-miterlimit:1.41421;"><path d="M58.965,152.353c70.755,0 109.455,-58.62 109.455,-109.455c0,-1.665 0,-3.322 -0.113,-4.972c7.529,-5.446 14.028,-12.189 19.193,-19.913c-7.021,3.111 -14.469,5.152 -22.095,6.053c8.028,-4.806 14.042,-12.372 16.913,-21.278c-7.552,4.481 -15.813,7.639 -24.428,9.338c-7.274,-7.734 -17.432,-12.126 -28.05,-12.126c-21.123,0 -38.505,17.382 -38.505,38.505c0,2.93 0.335,5.851 0.997,8.706c-30.915,-1.55 -59.758,-16.172 -79.282,-40.193c-10.153,17.479 -4.9,40.128 11.91,51.353c-6.122,-0.181 -12.111,-1.833 -17.46,-4.815c0,0.157 0,0.322 0,0.487c0.005,18.243 12.981,34.098 30.862,37.71c-5.663,1.545 -11.605,1.771 -17.37,0.66c5.028,15.632 19.523,26.407 35.941,26.715c-13.62,10.704 -30.453,16.518 -47.776,16.5c-3.06,-0.005 -6.118,-0.191 -9.157,-0.555c17.59,11.289 38.064,17.278 58.965,17.25" style="fill:#fff;fill-rule:nonzero;"/></svg>